<svg width="512" height="512" viewBox="0 0 512 512" fill="none" xmlns="http://www.w3.org/2000/svg">
<path fill-rule="evenodd" clip-rule="evenodd" d="M0 8C0 3.58172 3.58172 0 8 0H32C36.4183 0 40 3.58173 40 8.00001V472H504C508.418 472 512 475.582 512 480V504C512 508.418 508.418 512 504 512H16C7.16344 512 0 504.837 0 496V8Z" fill="black"/>
<path fill-rule="evenodd" clip-rule="evenodd" d="M472 184C476.418 184 480 187.582 480 192V408C480 412.418 476.418 416 472 416H448C443.582 416 440 412.418 440 408V192C440 187.582 443.582 184 448 184H472ZM264 240C268.418 240 272 243.582 272 248V408C272 412.418 268.418 416 264 416H240C235.582 416 232 412.418 232 408V248C232 243.582 235.582 240 240 240H264ZM160 280C164.418 280 168 283.582 168 288V408C168 412.418 164.418 416 160 416H136C131.582 416 128 412.418 128 408V288C128 283.582 131.582 280 136 280H160ZM368 312C372.418 312 376 315.582 376 320V408C376 412.418 372.418 416 368 416H344C339.582 416 336 412.418 336 408V320C336 315.582 339.582 312 344 312H368Z" fill="black"/>
<path fill-rule="evenodd" clip-rule="evenodd" d="M472.81 40.1476C476.054 43.1475 476.251 48.2089 473.252 51.4527L352.907 181.582C346.813 188.171 336.493 188.46 330.04 182.222L251.171 105.983L163.759 192.578C160.62 195.688 155.555 195.664 152.445 192.525L135.555 175.475C132.445 172.336 132.469 167.271 135.608 164.161L239.705 61.0368C245.887 54.9128 255.83 54.8518 262.086 60.8997L340.199 136.409L443.885 24.294C446.885 21.0502 451.946 20.8525 455.19 23.8524L472.81 40.1476Z" fill="black"/>
</svg>
